<mxfile host="app.diagrams.net" modified="2023-08-07T02:29:51.050Z" agent="Mozilla/5.0 (Windows NT 10.0; Win64; x64; rv:109.0) Gecko/20100101 Firefox/115.0" version="21.6.2" etag="VW8IFCH2Y4k3rKsMj8vK" type="github">
  <diagram name="第 1 页" id="fM9cQ64jWWIwdQak-fT2">
    <mxGraphModel>
      <root>
        <mxCell id="0" />
        <mxCell id="1" parent="0" />
      </root>
    </mxGraphModel>
  </diagram>
</mxfile>
